<svg width="1315" height="1055" viewBox="0 0 1315 1055" fill="none" xmlns="http://www.w3.org/2000/svg">
<path d="M0 106.259C0 47.5737 47.5738 0 106.259 0H212.985C234.61 0 252.14 17.5305 252.14 39.1555C252.14 60.7932 269.69 78.3289 291.328 78.3109L754.41 77.9257C775.916 77.9078 793.341 60.4688 793.341 38.9628C793.341 17.4443 810.785 0 832.304 0H1208.47C1267.16 0 1314.73 47.5738 1314.73 106.259V947.776C1314.73 1006.46 1267.16 1054.04 1208.47 1054.04H377.31C318.624 1054.04 271.051 1006.46 271.051 947.776V610.836C271.051 552.564 224.12 505.163 165.851 504.582L105.2 503.978C46.9308 503.397 0 455.996 0 397.724V106.259Z" fill="#070807"/>
<path d="M0.5 106.259C0.5 47.8499 47.8499 0.5 106.259 0.5H212.985C234.333 0.5 251.64 17.8066 251.64 39.1555C251.64 61.0695 269.415 78.8291 291.329 78.8109L754.411 78.4257C776.193 78.4075 793.841 60.7447 793.841 38.9628C793.841 17.7204 811.061 0.5 832.304 0.5H1208.47C1266.88 0.5 1314.23 47.8499 1314.23 106.259V947.776C1314.23 1006.19 1266.88 1053.54 1208.47 1053.54H377.31C318.9 1053.54 271.551 1006.19 271.551 947.776V610.836C271.551 552.29 224.399 504.666 165.856 504.082L105.205 503.478C47.21 502.9 0.5 455.722 0.5 397.724V106.259Z" stroke="#A3D416" stroke-opacity="0.2"/>
</svg>
