<svg width="540" height="1055" viewBox="0 0 540 1055" fill="none" xmlns="http://www.w3.org/2000/svg">
<path d="M0 106.259C0 47.5737 47.5738 0 106.259 0H163.891C222.576 0 270.15 47.5738 270.15 106.259V435.4C270.15 494.433 318.267 542.149 377.298 541.656L432.252 541.196C491.282 540.703 539.399 588.419 539.399 647.451V948.227C539.399 1006.91 491.826 1054.49 433.14 1054.49H270.15H106.259C47.5739 1054.49 0 1006.91 0 948.227V687.082V106.259Z" fill="#070807"/>
<path d="M0.5 106.259C0.5 47.8499 47.8499 0.5 106.259 0.5H163.891C222.3 0.5 269.65 47.8499 269.65 106.259V435.4C269.65 494.711 317.993 542.651 377.302 542.156L432.256 541.696C491.009 541.205 538.899 588.697 538.899 647.451V948.227C538.899 1006.64 491.549 1053.99 433.14 1053.99H270.15H106.259C47.85 1053.99 0.5 1006.64 0.5 948.227V687.082V106.259Z" stroke="#A3D416" stroke-opacity="0.2"/>
</svg>
